<?xml version="1.0" standalone="no"?>
<!DOCTYPE svg PUBLIC "-//W3C//DTD SVG 20010904//EN"
 "http://www.w3.org/TR/2001/REC-SVG-20010904/DTD/svg10.dtd">
<svg version="1.0" xmlns="http://www.w3.org/2000/svg"
 width="1024.000000pt" height="1024.000000pt" viewBox="0 0 1024.000000 1024.000000"
 preserveAspectRatio="xMidYMid meet">
<metadata>
Created by potrace 1.11, written by Peter Selinger 2001-2013
</metadata>
<g transform="translate(0.000000,1024.000000) scale(0.100000,-0.100000)"
fill="#000000" stroke="none">
<path d="M5049 8696 c-2 -2 -51 -6 -109 -10 -58 -4 -119 -8 -136 -10 -97 -10
-159 -19 -239 -33 -49 -8 -99 -17 -110 -19 -151 -23 -525 -130 -656 -188 -19
-8 -59 -25 -89 -38 -707 -297 -1336 -891 -1689 -1595 -39 -78 -71 -144 -71
-147 0 -3 -11 -29 -24 -58 -74 -162 -178 -500 -211 -683 -2 -16 -9 -55 -15
-85 -16 -92 -24 -145 -35 -245 -3 -27 -8 -66 -10 -85 -24 -204 -24 -693 0
-885 2 -16 6 -50 9 -75 3 -25 9 -70 12 -100 4 -30 8 -58 10 -61 1 -3 6 -28 9
-55 19 -147 112 -500 165 -629 4 -11 25 -63 45 -115 96 -242 271 -545 427
-741 29 -36 69 -86 88 -110 65 -82 324 -334 435 -423 286 -229 601 -407 945
-533 145 -53 257 -88 319 -100 14 -2 28 -6 33 -9 5 -3 18 -7 31 -10 46 -8 63
-12 102 -23 22 -5 56 -13 75 -16 19 -3 71 -12 115 -20 82 -15 123 -20 210 -30
28 -3 59 -7 70 -9 146 -28 747 -29 1010 -1 899 96 1685 530 2203 1215 131 173
172 238 271 431 144 281 261 646 296 922 2 18 7 50 10 72 12 77 14 90 20 160
13 163 21 649 12 755 l-2 25 -1436 3 c-1362 2 -1437 1 -1440 -15 -3 -15 -3
-882 0 -948 1 -20 7 -20 860 -20 l860 0 -4 -46 c-21 -266 -136 -545 -321 -779
-105 -134 -347 -340 -529 -451 -212 -130 -512 -240 -745 -274 -211 -32 -298
-38 -500 -38 -213 0 -387 16 -580 54 -189 36 -255 56 -510 150 -67 25 -276
135 -360 191 -489 320 -818 782 -969 1361 -16 62 -34 146 -41 187 -7 41 -14
83 -16 94 -2 10 -6 41 -9 70 -4 28 -8 65 -11 81 -9 57 -12 540 -4 620 17 162
21 191 30 245 6 30 13 69 15 85 40 223 144 523 248 714 259 476 694 865 1192
1066 86 35 262 91 315 101 14 3 41 9 60 14 82 21 265 47 395 57 160 11 520 4
603 -12 9 -1 53 -8 97 -15 112 -16 269 -54 376 -90 50 -17 93 -29 95 -27 4 3
322 843 351 925 8 24 14 44 12 46 -8 6 -209 67 -299 91 -110 29 -277 63 -395
80 -23 3 -50 7 -62 9 -12 3 -54 8 -95 11 -40 4 -86 9 -103 12 -35 5 -600 14
-606 9z"/>
</g>
</svg>
